<svg id="SvgjsSvg1006" width="879.0124969482422" height="589" xmlns="http://www.w3.org/2000/svg" version="1.1" xmlns:xlink="http://www.w3.org/1999/xlink" xmlns:svgjs="http://svgjs.com/svgjs"><defs id="SvgjsDefs1007"><marker id="SvgjsMarker1040" markerWidth="14" markerHeight="10" refX="10" refY="5" viewBox="0 0 14 10" orient="auto" markerUnits="userSpaceOnUse" stroke-dasharray="0,0"><path id="SvgjsPath1041" d="M0,0 L14,5 L0,10 L0,0" fill="#323232" stroke="#323232" stroke-width="1"></path></marker><marker id="SvgjsMarker1052" markerWidth="14" markerHeight="10" refX="10" refY="5" viewBox="0 0 14 10" orient="auto" markerUnits="userSpaceOnUse" stroke-dasharray="0,0"><path id="SvgjsPath1053" d="M0,0 L14,5 L0,10 L0,0" fill="#323232" stroke="#323232" stroke-width="1"></path></marker><marker id="SvgjsMarker1056" markerWidth="14" markerHeight="10" refX="10" refY="5" viewBox="0 0 14 10" orient="auto" markerUnits="userSpaceOnUse" stroke-dasharray="0,0"><path id="SvgjsPath1057" d="M0,0 L14,5 L0,10 L0,0" fill="#323232" stroke="#323232" stroke-width="1"></path></marker><marker id="SvgjsMarker1060" markerWidth="14" markerHeight="10" refX="10" refY="5" viewBox="0 0 14 10" orient="auto" markerUnits="userSpaceOnUse" stroke-dasharray="0,0"><path id="SvgjsPath1061" d="M0,0 L14,5 L0,10 L0,0" fill="#323232" stroke="#323232" stroke-width="1"></path></marker><marker id="SvgjsMarker1074" markerWidth="14" markerHeight="10" refX="10" refY="5" viewBox="0 0 14 10" orient="auto" markerUnits="userSpaceOnUse" stroke-dasharray="0,0"><path id="SvgjsPath1075" d="M0,0 L14,5 L0,10 L0,0" fill="#323232" stroke="#323232" stroke-width="1"></path></marker><marker id="SvgjsMarker1086" markerWidth="14" markerHeight="10" refX="10" refY="5" viewBox="0 0 14 10" orient="auto" markerUnits="userSpaceOnUse" stroke-dasharray="0,0"><path id="SvgjsPath1087" d="M0,0 L14,5 L0,10 L0,0" fill="#323232" stroke="#323232" stroke-width="1"></path></marker><marker id="SvgjsMarker1096" markerWidth="14" markerHeight="10" refX="10" refY="5" viewBox="0 0 14 10" orient="auto" markerUnits="userSpaceOnUse" stroke-dasharray="0,0"><path id="SvgjsPath1097" d="M0,0 L14,5 L0,10 L0,0" fill="#f44336" stroke="#f44336" stroke-width="1"></path></marker><marker id="SvgjsMarker1106" markerWidth="14" markerHeight="10" refX="10" refY="5" viewBox="0 0 14 10" orient="auto" markerUnits="userSpaceOnUse" stroke-dasharray="0,0"><path id="SvgjsPath1107" d="M0,0 L14,5 L0,10 L0,0" fill="#ff0000" stroke="#ff0000" stroke-width="1"></path></marker><marker id="SvgjsMarker1110" markerWidth="14" markerHeight="10" refX="10" refY="5" viewBox="0 0 14 10" orient="auto" markerUnits="userSpaceOnUse" stroke-dasharray="0,0"><path id="SvgjsPath1111" d="M0,0 L14,5 L0,10 L0,0" fill="#ff0000" stroke="#ff0000" stroke-width="1"></path></marker><marker id="SvgjsMarker1114" markerWidth="14" markerHeight="10" refX="10" refY="5" viewBox="0 0 14 10" orient="auto" markerUnits="userSpaceOnUse" stroke-dasharray="0,0"><path id="SvgjsPath1115" d="M0,0 L14,5 L0,10 L0,0" fill="#ff0000" stroke="#ff0000" stroke-width="1"></path></marker><marker id="SvgjsMarker1138" markerWidth="14" markerHeight="10" refX="10" refY="5" viewBox="0 0 14 10" orient="auto" markerUnits="userSpaceOnUse" stroke-dasharray="0,0"><path id="SvgjsPath1139" d="M0,0 L14,5 L0,10 L0,0" fill="#00ff00" stroke="#00ff00" stroke-width="1"></path></marker><marker id="SvgjsMarker1142" markerWidth="14" markerHeight="10" refX="10" refY="5" viewBox="0 0 14 10" orient="auto" markerUnits="userSpaceOnUse" stroke-dasharray="0,0"><path id="SvgjsPath1143" d="M0,0 L14,5 L0,10 L0,0" fill="#00ff00" stroke="#00ff00" stroke-width="1"></path></marker></defs><g id="SvgjsG1008" transform="translate(55.01249694824219,182)"><path id="SvgjsPath1009" d="M 0 0L 100 0L 100 70L 0 70Z" stroke="rgba(50,50,50,1)" stroke-width="2" fill-opacity="1" fill="#ffffff"></path><g id="SvgjsG1010"><text id="SvgjsText1011" font-family="微软雅黑" text-anchor="middle" font-size="13px" width="80px" fill="#323232" font-weight="400" align="middle" lineHeight="125%" anchor="middle" family="微软雅黑" size="13px" weight="400" font-style="" opacity="1" y="24.375" transform="rotate(0)"><tspan id="SvgjsTspan1012" dy="16" x="50"><tspan id="SvgjsTspan1013" style="text-decoration:;">user</tspan></tspan></text></g></g><g id="SvgjsG1014" transform="translate(272.0124969482422,182)"><path id="SvgjsPath1015" d="M 0 0L 100 0L 100 70L 0 70Z" stroke="rgba(50,50,50,1)" stroke-width="2" fill-opacity="1" fill="#ffffff"></path><g id="SvgjsG1016"><text id="SvgjsText1017" font-family="微软雅黑" text-anchor="middle" font-size="13px" width="80px" fill="#323232" font-weight="400" align="middle" lineHeight="125%" anchor="middle" family="微软雅黑" size="13px" weight="400" font-style="" opacity="1" y="24.375" transform="rotate(0)"><tspan id="SvgjsTspan1018" dy="16" x="50"><tspan id="SvgjsTspan1019" style="text-decoration:;">server</tspan></tspan></text></g></g><g id="SvgjsG1020" transform="translate(754.0124969482422,64)"><path id="SvgjsPath1021" d="M 0 0L 100 0L 100 70L 0 70Z" stroke="rgba(50,50,50,1)" stroke-width="2" fill-opacity="1" fill="#ffffff"></path><g id="SvgjsG1022"><text id="SvgjsText1023" font-family="微软雅黑" text-anchor="middle" font-size="13px" width="80px" fill="#323232" font-weight="400" align="middle" lineHeight="125%" anchor="middle" family="微软雅黑" size="13px" weight="400" font-style="" opacity="1" y="24.375" transform="rotate(0)"><tspan id="SvgjsTspan1024" dy="16" x="50"><tspan id="SvgjsTspan1025" style="text-decoration:;">user</tspan></tspan></text></g></g><g id="SvgjsG1026" transform="translate(754.0124969482422,264)"><path id="SvgjsPath1027" d="M 0 0L 100 0L 100 70L 0 70Z" stroke="rgba(50,50,50,1)" stroke-width="2" fill-opacity="1" fill="#ffffff"></path><g id="SvgjsG1028"><text id="SvgjsText1029" font-family="微软雅黑" text-anchor="middle" font-size="13px" width="80px" fill="#323232" font-weight="400" align="middle" lineHeight="125%" anchor="middle" family="微软雅黑" size="13px" weight="400" font-style="" opacity="1" y="24.375" transform="rotate(0)"><tspan id="SvgjsTspan1030" dy="16" x="50"><tspan id="SvgjsTspan1031" style="text-decoration:;">user</tspan></tspan></text></g></g><g id="SvgjsG1032" transform="translate(754.0124969482422,464)"><path id="SvgjsPath1033" d="M 0 0L 100 0L 100 70L 0 70Z" stroke="rgba(50,50,50,1)" stroke-width="2" fill-opacity="1" fill="#ffffff"></path><g id="SvgjsG1034"><text id="SvgjsText1035" font-family="微软雅黑" text-anchor="middle" font-size="13px" width="80px" fill="#323232" font-weight="400" align="middle" lineHeight="125%" anchor="middle" family="微软雅黑" size="13px" weight="400" font-style="" opacity="1" y="24.375" transform="rotate(0)"><tspan id="SvgjsTspan1036" dy="16" x="50"><tspan id="SvgjsTspan1037" style="text-decoration:;">user</tspan></tspan></text></g></g><g id="SvgjsG1038"><path id="SvgjsPath1039" d="M156.0124969482422 217L213.5124969482422 217L213.5124969482422 217L268.41249694824216 217" stroke="#323232" stroke-width="2" fill="none" marker-end="url(#SvgjsMarker1040)"></path></g><g id="SvgjsG1042" transform="translate(159.0124969482422,156)"><path id="SvgjsPath1043" d="M 0 0L 120 0L 120 40L 0 40Z" stroke="none" fill="none"></path><g id="SvgjsG1044"><text id="SvgjsText1045" font-family="微软雅黑" text-anchor="middle" font-size="13px" width="120px" fill="#323232" font-weight="400" align="middle" lineHeight="125%" anchor="middle" family="微软雅黑" size="13px" weight="400" font-style="" opacity="1" y="0.875" transform="rotate(0)"><tspan id="SvgjsTspan1046" dy="16" x="60"><tspan id="SvgjsTspan1047" style="text-decoration:;">用户上线，发送</tspan></tspan><tspan id="SvgjsTspan1048" dy="16" x="60"><tspan id="SvgjsTspan1049" style="text-decoration:;">name</tspan></tspan></text></g></g><g id="SvgjsG1050"><path id="SvgjsPath1051" d="M373.0124969482422 217L563.0124969482422 217L563.0124969482422 99L750.4124969482422 99" stroke="#323232" stroke-width="2" fill="none" marker-end="url(#SvgjsMarker1052)"></path></g><g id="SvgjsG1054"><path id="SvgjsPath1055" d="M373.0124969482422 217L563.0124969482422 217L563.0124969482422 299L750.4124969482422 299" stroke="#323232" stroke-width="2" fill="none" marker-end="url(#SvgjsMarker1056)"></path></g><g id="SvgjsG1058"><path id="SvgjsPath1059" d="M373.0124969482422 217L563.0124969482422 217L563.0124969482422 499L750.4124969482422 499" stroke="#323232" stroke-width="2" fill="none" marker-end="url(#SvgjsMarker1060)"></path></g><g id="SvgjsG1062" transform="translate(397.0124969482422,156)"><path id="SvgjsPath1063" d="M 0 0L 120 0L 120 40L 0 40Z" stroke="none" fill="none"></path><g id="SvgjsG1064"><text id="SvgjsText1065" font-family="微软雅黑" text-anchor="middle" font-size="13px" width="120px" fill="#323232" font-weight="400" align="middle" lineHeight="125%" anchor="middle" family="微软雅黑" size="13px" weight="400" font-style="" opacity="1" y="-7.125" transform="rotate(0)"><tspan id="SvgjsTspan1066" dy="16" x="60"><tspan id="SvgjsTspan1067" style="text-decoration:;">广播出去，告知有用</tspan></tspan><tspan id="SvgjsTspan1068" dy="16" x="60"><tspan id="SvgjsTspan1069" style="text-decoration:;">户进入聊天室，并更</tspan></tspan><tspan id="SvgjsTspan1070" dy="16" x="60"><tspan id="SvgjsTspan1071" style="text-decoration:;">新在线人数</tspan></tspan></text></g></g><g id="SvgjsG1072"><path id="SvgjsPath1073" d="M322.0124969482422 181L322.0124969482422 137.53015368960706L322.0124969482422 137.53015368960706L322.0124969482422 93.0603073792141" stroke="#323232" stroke-width="2" fill="none" marker-end="url(#SvgjsMarker1074)"></path></g><g id="SvgjsG1076" transform="translate(236.5124969482422,25)"><path id="SvgjsPath1077" d="M 0 0L 171 0L 171 56L 0 56Z" stroke="none" fill="none"></path><g id="SvgjsG1078"><text id="SvgjsText1079" font-family="微软雅黑" text-anchor="middle" font-size="13px" width="171px" fill="#323232" font-weight="400" align="middle" lineHeight="125%" anchor="middle" family="微软雅黑" size="13px" weight="400" font-style="" opacity="1" y="8.875" transform="rotate(0)"><tspan id="SvgjsTspan1080" dy="16" x="85.5"><tspan id="SvgjsTspan1081" style="text-decoration:;">1. 在线用户数member</tspan></tspan><tspan id="SvgjsTspan1082" dy="16" x="85.5"><tspan id="SvgjsTspan1083" style="text-decoration:;">2. 用户名与id的键值对</tspan></tspan></text></g></g><g id="SvgjsG1084"><path id="SvgjsPath1085" d="M322.0124969482422 253L322.0124969482422 282L105.01249694824219 282L105.01249694824219 255.60000000000002" stroke="#323232" stroke-width="2" fill="none" marker-end="url(#SvgjsMarker1086)"></path></g><g id="SvgjsG1088" transform="translate(165.0124969482422,294)"><path id="SvgjsPath1089" d="M 0 0L 120 0L 120 40L 0 40Z" stroke="none" fill="none"></path><g id="SvgjsG1090"><text id="SvgjsText1091" font-family="微软雅黑" text-anchor="middle" font-size="13px" width="120px" fill="#323232" font-weight="400" align="middle" lineHeight="125%" anchor="middle" family="微软雅黑" size="13px" weight="400" font-style="" opacity="1" y="9.375" transform="rotate(0)"><tspan id="SvgjsTspan1092" dy="16" x="60"><tspan id="SvgjsTspan1093" style="text-decoration:;">告知在线人数</tspan></tspan></text></g></g><g id="SvgjsG1094"><path id="SvgjsPath1095" d="M105.01249694824219 181L105.01249694824219 152L322.0124969482422 152L322.0124969482422 178.4" stroke="#f44336" stroke-width="2" fill="none" marker-end="url(#SvgjsMarker1096)"></path></g><g id="SvgjsG1098" transform="translate(136.0124969482422,98.5)"><path id="SvgjsPath1099" d="M 0 0L 120 0L 120 40L 0 40Z" stroke="none" fill="none"></path><g id="SvgjsG1100"><text id="SvgjsText1101" font-family="微软雅黑" text-anchor="middle" font-size="13px" width="120px" fill="#323232" font-weight="400" align="middle" lineHeight="125%" anchor="middle" family="微软雅黑" size="13px" weight="400" font-style="" opacity="1" y="9.375" transform="rotate(0)"><tspan id="SvgjsTspan1102" dy="16" x="60"><tspan id="SvgjsTspan1103" style="text-decoration:;">发送一条信息</tspan></tspan></text></g></g><g id="SvgjsG1104"><path id="SvgjsPath1105" d="M373.0124969482422 217L804.0124969482422 217L804.0124969482422 137.6" stroke="#ff0000" stroke-width="2" fill="none" marker-end="url(#SvgjsMarker1106)"></path></g><g id="SvgjsG1108"><path id="SvgjsPath1109" d="M373.0124969482422 217L804.0124969482422 217L804.0124969482422 260.4" stroke="#ff0000" stroke-width="2" fill="none" marker-end="url(#SvgjsMarker1110)"></path></g><g id="SvgjsG1112"><path id="SvgjsPath1113" d="M373.0124969482422 217L402.0124969482422 217L402.0124969482422 564L804.0124969482422 564L804.0124969482422 537.6" stroke="#ff0000" stroke-width="2" fill="none" marker-end="url(#SvgjsMarker1114)"></path></g><g id="SvgjsG1116" transform="translate(626.0124969482422,169)"><path id="SvgjsPath1117" d="M 0 0L 120 0L 120 40L 0 40Z" stroke="none" fill="none"></path><g id="SvgjsG1118"><text id="SvgjsText1119" font-family="微软雅黑" text-anchor="middle" font-size="13px" width="120px" fill="#323232" font-weight="400" align="middle" lineHeight="125%" anchor="middle" family="微软雅黑" size="13px" weight="400" font-style="" opacity="1" y="9.375" transform="rotate(0)"><tspan id="SvgjsTspan1120" dy="16" x="60"><tspan id="SvgjsTspan1121" style="text-decoration:;">广播用户信息</tspan></tspan></text></g></g><g id="SvgjsG1122" transform="translate(585.0124969482422,327)"><path id="SvgjsPath1123" d="M 0 0L 120 0L 120 40L 0 40Z" stroke="none" fill="none"></path><g id="SvgjsG1124"><text id="SvgjsText1125" font-family="微软雅黑" text-anchor="middle" font-size="13px" width="120px" fill="#323232" font-weight="400" align="middle" lineHeight="125%" anchor="middle" family="微软雅黑" size="13px" weight="400" font-style="" opacity="1" y="9.375" transform="rotate(0)"><tspan id="SvgjsTspan1126" dy="16" x="60"><tspan id="SvgjsTspan1127" style="text-decoration:;">用户离线</tspan></tspan></text></g></g><g id="SvgjsG1128" transform="translate(109.01249694824219,409)"><path id="SvgjsPath1129" d="M 0 0L 120 0L 120 40L 0 40Z" stroke="none" fill="none"></path><g id="SvgjsG1130"><text id="SvgjsText1131" font-family="微软雅黑" text-anchor="middle" font-size="13px" width="120px" fill="#323232" font-weight="400" align="middle" lineHeight="125%" anchor="middle" family="微软雅黑" size="13px" weight="400" font-style="" opacity="1" y="0.875" transform="rotate(0)"><tspan id="SvgjsTspan1132" dy="16" x="60"><tspan id="SvgjsTspan1133" style="text-decoration:;">广播出去用户离线，</tspan></tspan><tspan id="SvgjsTspan1134" dy="16" x="60"><tspan id="SvgjsTspan1135" style="text-decoration:;">更新在线用户人数</tspan></tspan></text></g></g><g id="SvgjsG1136"><path id="SvgjsPath1137" d="M804.0124969482422 463L804.0124969482422 358L322.0124969482422 358L322.0124969482422 255.60000000000002" stroke="#00ff00" stroke-width="2" fill="none" marker-end="url(#SvgjsMarker1138)"></path></g><g id="SvgjsG1140"><path id="SvgjsPath1141" d="M291.0124969482422 251L291.0124969482422 464L25.012496948242188 464L25.012496948242188 217L51.41249694824219 217" stroke="#00ff00" stroke-width="2" fill="none" marker-end="url(#SvgjsMarker1142)"></path></g></svg>