<svg xmlns="http://www.w3.org/2000/svg" xmlns:xlink="http://www.w3.org/1999/xlink" width="192" height="8" viewBox="0 0 192 8"><defs><style>.a{fill:rgba(255,255,255,0);}.b{fill:none;}.c{clip-path:url(#a);}.d{clip-path:url(#b);}.e{fill:silver;}.f{fill:#f2f2f2;}</style><clipPath id="a"><rect class="a" width="192" height="8" rx="4" transform="translate(118 323)"/></clipPath><clipPath id="b"><rect class="b" width="192" height="8"/></clipPath></defs><g class="c" transform="translate(-118 -323)"><g class="d" transform="translate(118 323)"><g transform="translate(-241 -248)"><rect class="e" width="4" height="4" transform="translate(241 248)"/><rect class="e" width="4" height="4" transform="translate(245 252)"/><rect class="f" width="4" height="4" transform="translate(245 248)"/><rect class="f" width="4" height="4" transform="translate(241 252)"/></g><g transform="translate(-233 -248)"><rect class="e" width="4" height="4" transform="translate(241 248)"/><rect class="e" width="4" height="4" transform="translate(245 252)"/><rect class="f" width="4" height="4" transform="translate(245 248)"/><rect class="f" width="4" height="4" transform="translate(241 252)"/></g><g transform="translate(-225 -248)"><rect class="e" width="4" height="4" transform="translate(241 248)"/><rect class="e" width="4" height="4" transform="translate(245 252)"/><rect class="f" width="4" height="4" transform="translate(245 248)"/><rect class="f" width="4" height="4" transform="translate(241 252)"/></g><g transform="translate(-217 -248)"><rect class="e" width="4" height="4" transform="translate(241 248)"/><rect class="e" width="4" height="4" transform="translate(245 252)"/><rect class="f" width="4" height="4" transform="translate(245 248)"/><rect class="f" width="4" height="4" transform="translate(241 252)"/></g><g transform="translate(-209 -248)"><rect class="e" width="4" height="4" transform="translate(241 248)"/><rect class="e" width="4" height="4" transform="translate(245 252)"/><rect class="f" width="4" height="4" transform="translate(245 248)"/><rect class="f" width="4" height="4" transform="translate(241 252)"/></g><g transform="translate(-201 -248)"><rect class="e" width="4" height="4" transform="translate(241 248)"/><rect class="e" width="4" height="4" transform="translate(245 252)"/><rect class="f" width="4" height="4" transform="translate(245 248)"/><rect class="f" width="4" height="4" transform="translate(241 252)"/></g><g transform="translate(-193 -248)"><rect class="e" width="4" height="4" transform="translate(241 248)"/><rect class="e" width="4" height="4" transform="translate(245 252)"/><rect class="f" width="4" height="4" transform="translate(245 248)"/><rect class="f" width="4" height="4" transform="translate(241 252)"/></g><g transform="translate(-185 -248)"><rect class="e" width="4" height="4" transform="translate(241 248)"/><rect class="e" width="4" height="4" transform="translate(245 252)"/><rect class="f" width="4" height="4" transform="translate(245 248)"/><rect class="f" width="4" height="4" transform="translate(241 252)"/></g><g transform="translate(-177 -248)"><rect class="e" width="4" height="4" transform="translate(241 248)"/><rect class="e" width="4" height="4" transform="translate(245 252)"/><rect class="f" width="4" height="4" transform="translate(245 248)"/><rect class="f" width="4" height="4" transform="translate(241 252)"/></g><g transform="translate(-169 -248)"><rect class="e" width="4" height="4" transform="translate(241 248)"/><rect class="e" width="4" height="4" transform="translate(245 252)"/><rect class="f" width="4" height="4" transform="translate(245 248)"/><rect class="f" width="4" height="4" transform="translate(241 252)"/></g><g transform="translate(-161 -248)"><rect class="e" width="4" height="4" transform="translate(241 248)"/><rect class="e" width="4" height="4" transform="translate(245 252)"/><rect class="f" width="4" height="4" transform="translate(245 248)"/><rect class="f" width="4" height="4" transform="translate(241 252)"/></g><g transform="translate(-153 -248)"><rect class="e" width="4" height="4" transform="translate(241 248)"/><rect class="e" width="4" height="4" transform="translate(245 252)"/><rect class="f" width="4" height="4" transform="translate(245 248)"/><rect class="f" width="4" height="4" transform="translate(241 252)"/></g><g transform="translate(-145 -248)"><rect class="e" width="4" height="4" transform="translate(241 248)"/><rect class="e" width="4" height="4" transform="translate(245 252)"/><rect class="f" width="4" height="4" transform="translate(245 248)"/><rect class="f" width="4" height="4" transform="translate(241 252)"/></g><g transform="translate(-137 -248)"><rect class="e" width="4" height="4" transform="translate(241 248)"/><rect class="e" width="4" height="4" transform="translate(245 252)"/><rect class="f" width="4" height="4" transform="translate(245 248)"/><rect class="f" width="4" height="4" transform="translate(241 252)"/></g><g transform="translate(-129 -248)"><rect class="e" width="4" height="4" transform="translate(241 248)"/><rect class="e" width="4" height="4" transform="translate(245 252)"/><rect class="f" width="4" height="4" transform="translate(245 248)"/><rect class="f" width="4" height="4" transform="translate(241 252)"/></g><g transform="translate(-121 -248)"><rect class="e" width="4" height="4" transform="translate(241 248)"/><rect class="e" width="4" height="4" transform="translate(245 252)"/><rect class="f" width="4" height="4" transform="translate(245 248)"/><rect class="f" width="4" height="4" transform="translate(241 252)"/></g><g transform="translate(-113 -248)"><rect class="e" width="4" height="4" transform="translate(241 248)"/><rect class="e" width="4" height="4" transform="translate(245 252)"/><rect class="f" width="4" height="4" transform="translate(245 248)"/><rect class="f" width="4" height="4" transform="translate(241 252)"/></g><g transform="translate(-105 -248)"><rect class="e" width="4" height="4" transform="translate(241 248)"/><rect class="e" width="4" height="4" transform="translate(245 252)"/><rect class="f" width="4" height="4" transform="translate(245 248)"/><rect class="f" width="4" height="4" transform="translate(241 252)"/></g><g transform="translate(-97 -248)"><rect class="e" width="4" height="4" transform="translate(241 248)"/><rect class="e" width="4" height="4" transform="translate(245 252)"/><rect class="f" width="4" height="4" transform="translate(245 248)"/><rect class="f" width="4" height="4" transform="translate(241 252)"/></g><g transform="translate(-89 -248)"><rect class="e" width="4" height="4" transform="translate(241 248)"/><rect class="e" width="4" height="4" transform="translate(245 252)"/><rect class="f" width="4" height="4" transform="translate(245 248)"/><rect class="f" width="4" height="4" transform="translate(241 252)"/></g><g transform="translate(-81 -248)"><rect class="e" width="4" height="4" transform="translate(241 248)"/><rect class="e" width="4" height="4" transform="translate(245 252)"/><rect class="f" width="4" height="4" transform="translate(245 248)"/><rect class="f" width="4" height="4" transform="translate(241 252)"/></g><g transform="translate(-73 -248)"><rect class="e" width="4" height="4" transform="translate(241 248)"/><rect class="e" width="4" height="4" transform="translate(245 252)"/><rect class="f" width="4" height="4" transform="translate(245 248)"/><rect class="f" width="4" height="4" transform="translate(241 252)"/></g><g transform="translate(-65 -248)"><rect class="e" width="4" height="4" transform="translate(241 248)"/><rect class="e" width="4" height="4" transform="translate(245 252)"/><rect class="f" width="4" height="4" transform="translate(245 248)"/><rect class="f" width="4" height="4" transform="translate(241 252)"/></g><g transform="translate(-57 -248)"><rect class="e" width="4" height="4" transform="translate(241 248)"/><rect class="e" width="4" height="4" transform="translate(245 252)"/><rect class="f" width="4" height="4" transform="translate(245 248)"/><rect class="f" width="4" height="4" transform="translate(241 252)"/></g></g></g></svg>