<svg id="SvgjsSvg1366" width="687.0124816894531" height="701" xmlns="http://www.w3.org/2000/svg" version="1.1" xmlns:xlink="http://www.w3.org/1999/xlink" xmlns:svgjs="http://svgjs.com/svgjs"><defs id="SvgjsDefs1367"><marker id="SvgjsMarker1390" markerWidth="16" markerHeight="12" refX="16" refY="6" viewBox="0 0 16 12" orient="auto" markerUnits="userSpaceOnUse" stroke-dasharray="0,0"><path id="SvgjsPath1391" d="M0,2 L14,6 L0,11 L0,2" fill="#323232" stroke="#323232" stroke-width="2"></path></marker><marker id="SvgjsMarker1400" markerWidth="16" markerHeight="12" refX="16" refY="6" viewBox="0 0 16 12" orient="auto" markerUnits="userSpaceOnUse" stroke-dasharray="0,0"><path id="SvgjsPath1401" d="M0,2 L14,6 L0,11 L0,2" fill="#323232" stroke="#323232" stroke-width="2"></path></marker><marker id="SvgjsMarker1416" markerWidth="16" markerHeight="12" refX="16" refY="6" viewBox="0 0 16 12" orient="auto" markerUnits="userSpaceOnUse" stroke-dasharray="0,0"><path id="SvgjsPath1417" d="M0,2 L14,6 L0,11 L0,2" fill="#323232" stroke="#323232" stroke-width="2"></path></marker><marker id="SvgjsMarker1448" markerWidth="16" markerHeight="12" refX="16" refY="6" viewBox="0 0 16 12" orient="auto" markerUnits="userSpaceOnUse" stroke-dasharray="0,0"><path id="SvgjsPath1449" d="M0,2 L14,6 L0,11 L0,2" fill="#323232" stroke="#323232" stroke-width="2"></path></marker><marker id="SvgjsMarker1458" markerWidth="16" markerHeight="12" refX="16" refY="6" viewBox="0 0 16 12" orient="auto" markerUnits="userSpaceOnUse" stroke-dasharray="0,0"><path id="SvgjsPath1459" d="M0,2 L14,6 L0,11 L0,2" fill="#323232" stroke="#323232" stroke-width="2"></path></marker><marker id="SvgjsMarker1462" markerWidth="16" markerHeight="12" refX="16" refY="6" viewBox="0 0 16 12" orient="auto" markerUnits="userSpaceOnUse" stroke-dasharray="0,0"><path id="SvgjsPath1463" d="M0,2 L14,6 L0,11 L0,2" fill="#323232" stroke="#323232" stroke-width="2"></path></marker><marker id="SvgjsMarker1472" markerWidth="16" markerHeight="12" refX="16" refY="6" viewBox="0 0 16 12" orient="auto" markerUnits="userSpaceOnUse" stroke-dasharray="0,0"><path id="SvgjsPath1473" d="M0,2 L14,6 L0,11 L0,2" fill="#323232" stroke="#323232" stroke-width="2"></path></marker><marker id="SvgjsMarker1482" markerWidth="16" markerHeight="12" refX="16" refY="6" viewBox="0 0 16 12" orient="auto" markerUnits="userSpaceOnUse" stroke-dasharray="0,0"><path id="SvgjsPath1483" d="M0,2 L14,6 L0,11 L0,2" fill="#323232" stroke="#323232" stroke-width="2"></path></marker><marker id="SvgjsMarker1492" markerWidth="16" markerHeight="12" refX="16" refY="6" viewBox="0 0 16 12" orient="auto" markerUnits="userSpaceOnUse" stroke-dasharray="0,0"><path id="SvgjsPath1493" d="M0,2 L14,6 L0,11 L0,2" fill="#323232" stroke="#323232" stroke-width="2"></path></marker><marker id="SvgjsMarker1508" markerWidth="16" markerHeight="12" refX="16" refY="6" viewBox="0 0 16 12" orient="auto" markerUnits="userSpaceOnUse" stroke-dasharray="0,0"><path id="SvgjsPath1509" d="M0,2 L14,6 L0,11 L0,2" fill="#323232" stroke="#323232" stroke-width="2"></path></marker><marker id="SvgjsMarker1524" markerWidth="16" markerHeight="12" refX="16" refY="6" viewBox="0 0 16 12" orient="auto" markerUnits="userSpaceOnUse" stroke-dasharray="0,0"><path id="SvgjsPath1525" d="M0,2 L14,6 L0,11 L0,2" fill="#323232" stroke="#323232" stroke-width="2"></path></marker><marker id="SvgjsMarker1534" markerWidth="16" markerHeight="12" refX="16" refY="6" viewBox="0 0 16 12" orient="auto" markerUnits="userSpaceOnUse" stroke-dasharray="0,0"><path id="SvgjsPath1535" d="M0,2 L14,6 L0,11 L0,2" fill="#323232" stroke="#323232" stroke-width="2"></path></marker></defs><g id="SvgjsG1368" transform="translate(73.01248168945312,87.99999237060547)"><path id="SvgjsPath1369" d="M 10.799999999999999 49C -9 35 3.6 24.5 8.1 21C 6.300000000000001 3.5 28.8 0 37.8 7C 45 -3.5 67.5 0 67.5 10.5C 85.5 7 92.7 21 85.5 38.5C 91.8 52.5 85.5 70 64.8 63C 60.300000000000004 72.10000000000001 42.3 72.10000000000001 37.8 63C 28.8 70 10.799999999999999 66.5 10.799999999999999 49Z" stroke="rgba(50,50,50,1)" stroke-width="2" fill-opacity="1" fill="#ffffff"></path><g id="SvgjsG1370"><text id="SvgjsText1371" font-family="微软雅黑" text-anchor="middle" font-size="13px" width="70px" fill="#323232" font-weight="400" align="middle" anchor="middle" family="微软雅黑" size="13px" weight="400" font-style="" opacity="1" y="25.05" transform="rotate(0)"><tspan id="SvgjsTspan1372" dy="16" x="45"><tspan id="SvgjsTspan1373" style="text-decoration:;">new Vue</tspan></tspan></text></g></g><g id="SvgjsG1374" transform="translate(252.01248168945312,87.99999237060547)"><path id="SvgjsPath1375" d="M 10.799999999999999 49C -9 35 3.6 24.5 8.1 21C 6.300000000000001 3.5 28.8 0 37.8 7C 45 -3.5 67.5 0 67.5 10.5C 85.5 7 92.7 21 85.5 38.5C 91.8 52.5 85.5 70 64.8 63C 60.300000000000004 72.10000000000001 42.3 72.10000000000001 37.8 63C 28.8 70 10.799999999999999 66.5 10.799999999999999 49Z" stroke="rgba(50,50,50,1)" stroke-width="2" fill-opacity="1" fill="#ffffff"></path><g id="SvgjsG1376"><text id="SvgjsText1377" font-family="微软雅黑" text-anchor="middle" font-size="13px" width="70px" fill="#323232" font-weight="400" align="middle" anchor="middle" family="微软雅黑" size="13px" weight="400" font-style="" opacity="1" y="25.05" transform="rotate(0)"><tspan id="SvgjsTspan1378" dy="16" x="45"><tspan id="SvgjsTspan1379" style="text-decoration:;">_init</tspan></tspan></text></g></g><g id="SvgjsG1380" transform="translate(190.01248168945312,24.99999237060547)"><path id="SvgjsPath1381" d="M 0 30C 0 -10 127 -10 127 30Q 124.46 58.8 63.5 60Q 42.333333333333336 60 21.166666666666668 54L 0 60L 14.859 51.42Q 0 42 0 30" stroke="rgba(50,50,50,1)" stroke-width="2" fill-opacity="1" fill="#ffffff"></path><g id="SvgjsG1382"><text id="SvgjsText1383" font-family="微软雅黑" text-anchor="middle" font-size="13px" width="107px" fill="#323232" font-weight="400" align="middle" anchor="middle" family="微软雅黑" size="13px" weight="400" font-style="" opacity="1" y="20.05" transform="rotate(0)"><tspan id="SvgjsTspan1384" dy="16" x="63.5"><tspan id="SvgjsTspan1385" style="text-decoration:;">this._init(options</tspan></tspan><tspan id="SvgjsTspan1386" dy="16" x="63.5"><tspan id="SvgjsTspan1387" style="text-decoration:;">)</tspan></tspan></text></g></g><g id="SvgjsG1388"><path id="SvgjsPath1389" d="M158.89948168945313 104.09999237060546L205.4559816894531 104.09999237060546L205.4559816894531 122.99999237060547L252.01248168945312 122.99999237060547" stroke="#323232" stroke-width="2" fill="none" marker-end="url(#SvgjsMarker1390)"></path></g><g id="SvgjsG1392" transform="translate(405.0124816894531,100.99999237060547)"><path id="SvgjsPath1393" d="M 10.799999999999999 49C -9 35 3.6 24.5 8.1 21C 6.300000000000001 3.5 28.8 0 37.8 7C 45 -3.5 67.5 0 67.5 10.5C 85.5 7 92.7 21 85.5 38.5C 91.8 52.5 85.5 70 64.8 63C 60.300000000000004 72.10000000000001 42.3 72.10000000000001 37.8 63C 28.8 70 10.799999999999999 66.5 10.799999999999999 49Z" stroke="rgba(50,50,50,1)" stroke-width="2" fill-opacity="1" fill="#ffffff"></path><g id="SvgjsG1394"><text id="SvgjsText1395" font-family="微软雅黑" text-anchor="middle" font-size="13px" width="70px" fill="#323232" font-weight="400" align="middle" anchor="middle" family="微软雅黑" size="13px" weight="400" font-style="" opacity="1" y="25.05" transform="rotate(0)"><tspan id="SvgjsTspan1396" dy="16" x="45"><tspan id="SvgjsTspan1397" style="text-decoration:;">$mount</tspan></tspan></text></g></g><g id="SvgjsG1398"><path id="SvgjsPath1399" d="M337.8994816894531 104.09999237060546L371.4559816894531 104.09999237060546L371.4559816894531 135.99999237060547L405.0124816894531 135.99999237060547" stroke="#323232" stroke-width="2" fill="none" marker-end="url(#SvgjsMarker1400)"></path></g><g id="SvgjsG1402" transform="translate(309.0124816894531,51.99999237060547)"><path id="SvgjsPath1403" d="M 0 0L 197 0L 197 40L 0 40Z" stroke="none" fill="none"></path><g id="SvgjsG1404"><text id="SvgjsText1405" font-family="微软雅黑" text-anchor="middle" font-size="13px" width="197px" fill="#323232" font-weight="400" align="middle" anchor="middle" family="微软雅黑" size="13px" weight="400" font-style="" opacity="1" y="10.05" transform="rotate(0)"><tspan id="SvgjsTspan1406" dy="16" x="98.5"><tspan id="SvgjsTspan1407" style="text-decoration:;">vm.$mount(vm.$options.el)</tspan></tspan></text></g></g><g id="SvgjsG1408" transform="translate(489.0124816894531,174.99999237060547)"><path id="SvgjsPath1409" d="M 16.8 58.099999999999994C -14 41.5 5.6000000000000005 29.049999999999997 12.6 24.9C 9.8 4.15 44.800000000000004 0 58.8 8.3C 70 -4.15 105 0 105 12.45C 133 8.3 144.20000000000002 24.9 133 45.650000000000006C 142.8 62.25 133 83 100.8 74.7C 93.80000000000001 85.49000000000001 65.8 85.49000000000001 58.8 74.7C 44.800000000000004 83 16.8 78.85 16.8 58.099999999999994Z" stroke="rgba(50,50,50,1)" stroke-width="2" fill-opacity="1" fill="#ffffff"></path><g id="SvgjsG1410"><text id="SvgjsText1411" font-family="微软雅黑" text-anchor="middle" font-size="13px" width="120px" fill="#323232" font-weight="400" align="middle" anchor="middle" family="微软雅黑" size="13px" weight="400" font-style="" opacity="1" y="31.55" transform="rotate(0)"><tspan id="SvgjsTspan1412" dy="16" x="70"><tspan id="SvgjsTspan1413" style="text-decoration:;">mountComponent</tspan></tspan></text></g></g><g id="SvgjsG1414"><path id="SvgjsPath1415" d="M491.59248168945317 156.99999237060547L573.0124816894531 156.99999237060547L573.0124816894531 175.82999237060545" stroke="#323232" stroke-width="2" fill="none" marker-end="url(#SvgjsMarker1416)"></path></g><g id="SvgjsG1418" transform="translate(492.0124816894531,308.99999237060547)"><path id="SvgjsPath1419" d="M 10.799999999999999 49C -9 35 3.6 24.5 8.1 21C 6.300000000000001 3.5 28.8 0 37.8 7C 45 -3.5 67.5 0 67.5 10.5C 85.5 7 92.7 21 85.5 38.5C 91.8 52.5 85.5 70 64.8 63C 60.300000000000004 72.10000000000001 42.3 72.10000000000001 37.8 63C 28.8 70 10.799999999999999 66.5 10.799999999999999 49Z" stroke="rgba(50,50,50,1)" stroke-width="2" fill-opacity="1" fill="#ffffff"></path><g id="SvgjsG1420"><text id="SvgjsText1421" font-family="微软雅黑" text-anchor="middle" font-size="13px" width="70px" fill="#323232" font-weight="400" align="middle" anchor="middle" family="微软雅黑" size="13px" weight="400" font-style="" opacity="1" y="25.05" transform="rotate(0)"><tspan id="SvgjsTspan1422" dy="16" x="45"><tspan id="SvgjsTspan1423" style="text-decoration:;">_update</tspan></tspan></text></g></g><g id="SvgjsG1424" transform="translate(376.0124816894531,270.99999237060547)"><path id="SvgjsPath1425" d="M 0 0L 169 0L 169 33L 0 33Z" stroke="none" fill="none"></path><g id="SvgjsG1426"><text id="SvgjsText1427" font-family="微软雅黑" text-anchor="middle" font-size="13px" width="169px" fill="#323232" font-weight="400" align="middle" anchor="middle" family="微软雅黑" size="13px" weight="400" font-style="" opacity="1" y="-1.45" transform="rotate(0)"><tspan id="SvgjsTspan1428" dy="16" x="84.5"><tspan id="SvgjsTspan1429" style="text-decoration:;"> vm._update(vm._render(), </tspan></tspan><tspan id="SvgjsTspan1430" dy="16" x="84.5"><tspan id="SvgjsTspan1431" style="text-decoration:;">hydrating)</tspan></tspan></text></g></g><g id="SvgjsG1432" transform="translate(499.0124816894531,115.99999237060547)"><path id="SvgjsPath1433" d="M 0 0L 120 0L 120 40L 0 40Z" stroke="none" fill="none"></path><g id="SvgjsG1434"><text id="SvgjsText1435" font-family="微软雅黑" text-anchor="middle" font-size="13px" width="120px" fill="#323232" font-weight="400" align="middle" anchor="middle" family="微软雅黑" size="13px" weight="400" font-style="" opacity="1" y="2.05" transform="rotate(0)"><tspan id="SvgjsTspan1436" dy="16" x="60"><tspan id="SvgjsTspan1437" style="text-decoration:;">模板编译成render函</tspan></tspan><tspan id="SvgjsTspan1438" dy="16" x="60"><tspan id="SvgjsTspan1439" style="text-decoration:;">数形式</tspan></tspan></text></g></g><g id="SvgjsG1440" transform="translate(337.0124816894531,311.9999942779541)"><path id="SvgjsPath1441" d="M 10.799999999999999 49C -9 35 3.6 24.5 8.1 21C 6.300000000000001 3.5 28.8 0 37.8 7C 45 -3.5 67.5 0 67.5 10.5C 85.5 7 92.7 21 85.5 38.5C 91.8 52.5 85.5 70 64.8 63C 60.300000000000004 72.10000000000001 42.3 72.10000000000001 37.8 63C 28.8 70 10.799999999999999 66.5 10.799999999999999 49Z" stroke="rgba(50,50,50,1)" stroke-width="2" fill-opacity="1" fill="#ffffff"></path><g id="SvgjsG1442"><text id="SvgjsText1443" font-family="微软雅黑" text-anchor="middle" font-size="13px" width="70px" fill="#323232" font-weight="400" align="middle" anchor="middle" family="微软雅黑" size="13px" weight="400" font-style="" opacity="1" y="25.05" transform="rotate(0)"><tspan id="SvgjsTspan1444" dy="16" x="45"><tspan id="SvgjsTspan1445" style="text-decoration:;">_render</tspan></tspan></text></g></g><g id="SvgjsG1446"><path id="SvgjsPath1447" d="M492.0124816894531 343.99999237060547L457.4559816894531 343.99999237060547L457.4559816894531 328.0999942779541L422.89948168945307 328.0999942779541" stroke="#323232" stroke-width="2" fill="none" marker-end="url(#SvgjsMarker1448)"></path></g><g id="SvgjsG1450" transform="translate(176.01248168945312,224.99999237060547)"><path id="SvgjsPath1451" d="M 14.399999999999999 47.599999999999994C -12 34 4.8 23.799999999999997 10.799999999999999 20.4C 8.4 3.4000000000000004 38.4 0 50.4 6.800000000000001C 60 -3.4000000000000004 90 0 90 10.2C 114 6.800000000000001 123.60000000000001 20.4 114 37.400000000000006C 122.4 51 114 68 86.39999999999999 61.2C 80.4 70.04 56.4 70.04 50.4 61.2C 38.4 68 14.399999999999999 64.6 14.399999999999999 47.599999999999994Z" stroke="rgba(50,50,50,1)" stroke-width="2" fill-opacity="1" fill="#ffffff"></path><g id="SvgjsG1452"><text id="SvgjsText1453" font-family="微软雅黑" text-anchor="middle" font-size="13px" width="100px" fill="#323232" font-weight="400" align="middle" anchor="middle" family="微软雅黑" size="13px" weight="400" font-style="" opacity="1" y="24.05" transform="rotate(0)"><tspan id="SvgjsTspan1454" dy="16" x="60"><tspan id="SvgjsTspan1455" style="text-decoration:;">$createElement</tspan></tspan></text></g></g><g id="SvgjsG1456"><path id="SvgjsPath1457" d="M337.0124816894531 346.9999942779541L313.77048168945316 346.9999942779541L313.77048168945316 240.6399923706055L290.52848168945314 240.6399923706055" stroke="#323232" stroke-width="2" fill="none" marker-end="url(#SvgjsMarker1458)"></path></g><g id="SvgjsG1460"><path id="SvgjsPath1461" d="M568.8124816894531 257.99999237060547L568.8124816894531 283.8499923706055L546.0124816894531 283.8499923706055L546.0124816894531 309.69999237060546" stroke="#323232" stroke-width="2" fill="none" marker-end="url(#SvgjsMarker1462)"></path></g><g id="SvgjsG1464" transform="translate(32.012481689453125,348.9999942779541)"><path id="SvgjsPath1465" d="M 10.799999999999999 49C -9 35 3.6 24.5 8.1 21C 6.300000000000001 3.5 28.8 0 37.8 7C 45 -3.5 67.5 0 67.5 10.5C 85.5 7 92.7 21 85.5 38.5C 91.8 52.5 85.5 70 64.8 63C 60.300000000000004 72.10000000000001 42.3 72.10000000000001 37.8 63C 28.8 70 10.799999999999999 66.5 10.799999999999999 49Z" stroke="rgba(50,50,50,1)" stroke-width="2" fill-opacity="1" fill="#ffffff"></path><g id="SvgjsG1466"><text id="SvgjsText1467" font-family="微软雅黑" text-anchor="middle" font-size="13px" width="70px" fill="#323232" font-weight="400" align="middle" anchor="middle" family="微软雅黑" size="13px" weight="400" font-style="" opacity="1" y="25.05" transform="rotate(0)"><tspan id="SvgjsTspan1468" dy="16" x="45"><tspan id="SvgjsTspan1469" style="text-decoration:;">VNode</tspan></tspan></text></g></g><g id="SvgjsG1470"><path id="SvgjsPath1471" d="M198.81248168945314 286.19999237060546L198.81248168945314 317.9499933242798L86.01248168945312 317.9499933242798L86.01248168945312 349.6999942779541" stroke="#323232" stroke-width="2" fill="none" marker-end="url(#SvgjsMarker1472)"></path></g><g id="SvgjsG1474" transform="translate(81.01248168945312,283.9999942779541)"><path id="SvgjsPath1475" d="M 0 0L 120 0L 120 40L 0 40Z" stroke="none" fill="none"></path><g id="SvgjsG1476"><text id="SvgjsText1477" font-family="微软雅黑" text-anchor="middle" font-size="13px" width="120px" fill="#323232" font-weight="400" align="middle" anchor="middle" family="微软雅黑" size="13px" weight="400" font-style="" opacity="1" y="10.05" transform="rotate(0)"><tspan id="SvgjsTspan1478" dy="16" x="60"><tspan id="SvgjsTspan1479" style="text-decoration:;">_createElement</tspan></tspan></text></g></g><g id="SvgjsG1480"><path id="SvgjsPath1481" d="M118.59248168945311 404.9999942779541L543.3124816894531 404.9999942779541L543.3124816894531 378.99999237060547" stroke="#323232" stroke-width="2" fill="none" marker-end="url(#SvgjsMarker1482)"></path></g><g id="SvgjsG1484" transform="translate(489.0124816894531,478.99999237060547)"><path id="SvgjsPath1485" d="M 10.799999999999999 49C -9 35 3.6 24.5 8.1 21C 6.300000000000001 3.5 28.8 0 37.8 7C 45 -3.5 67.5 0 67.5 10.5C 85.5 7 92.7 21 85.5 38.5C 91.8 52.5 85.5 70 64.8 63C 60.300000000000004 72.10000000000001 42.3 72.10000000000001 37.8 63C 28.8 70 10.799999999999999 66.5 10.799999999999999 49Z" stroke="rgba(50,50,50,1)" stroke-width="2" fill-opacity="1" fill="#ffffff"></path><g id="SvgjsG1486"><text id="SvgjsText1487" font-family="微软雅黑" text-anchor="middle" font-size="13px" width="70px" fill="#323232" font-weight="400" align="middle" anchor="middle" family="微软雅黑" size="13px" weight="400" font-style="" opacity="1" y="25.05" transform="rotate(0)"><tspan id="SvgjsTspan1488" dy="16" x="45"><tspan id="SvgjsTspan1489" style="text-decoration:;">__patch__</tspan></tspan></text></g></g><g id="SvgjsG1490"><path id="SvgjsPath1491" d="M543.3124816894531 378.99999237060547L543.3124816894531 429.3499923706055L543.0124816894531 429.3499923706055L543.0124816894531 479.6999923706055" stroke="#323232" stroke-width="2" fill="none" marker-end="url(#SvgjsMarker1492)"></path></g><g id="SvgjsG1494" transform="translate(351.0124816894531,423.99999237060547)"><path id="SvgjsPath1495" d="M 0 0L 311 0L 311 29L 0 29Z" stroke="none" fill="none"></path><g id="SvgjsG1496"><text id="SvgjsText1497" font-family="微软雅黑" text-anchor="middle" font-size="13px" width="311px" fill="#323232" font-weight="400" align="middle" anchor="middle" family="微软雅黑" size="13px" weight="400" font-style="" opacity="1" y="4.55" transform="rotate(0)"><tspan id="SvgjsTspan1498" dy="16" x="155.5"><tspan id="SvgjsTspan1499" style="text-decoration:;">vm.__patch__(vm.$el, vnode, hydrating, false)</tspan></tspan></text></g></g><g id="SvgjsG1500" transform="translate(176.01248168945312,481.99999237060547)"><path id="SvgjsPath1501" d="M 12.299999999999999 46.9C -10.25 33.5 4.1 23.45 9.225 20.099999999999998C 7.175000000000001 3.35 32.8 0 43.05 6.7C 51.25 -3.35 76.875 0 76.875 10.049999999999999C 97.375 6.7 105.575 20.099999999999998 97.375 36.85C 104.55 50.25 97.375 67 73.8 60.300000000000004C 68.675 69.01 48.175 69.01 43.05 60.300000000000004C 32.8 67 12.299999999999999 63.65 12.299999999999999 46.9Z" stroke="rgba(50,50,50,1)" stroke-width="2" fill-opacity="1" fill="#ffffff"></path><g id="SvgjsG1502"><text id="SvgjsText1503" font-family="微软雅黑" text-anchor="middle" font-size="13px" width="83px" fill="#323232" font-weight="400" align="middle" anchor="middle" family="微软雅黑" size="13px" weight="400" font-style="" opacity="1" y="23.55" transform="rotate(0)"><tspan id="SvgjsTspan1504" dy="16" x="51.5"><tspan id="SvgjsTspan1505" style="text-decoration:;">patch</tspan></tspan></text></g></g><g id="SvgjsG1506"><path id="SvgjsPath1507" d="M489.0124816894531 513.9999923706055L381.4203566894531 513.9999923706055L381.4203566894531 497.40999237060544L273.8282316894531 497.40999237060544" stroke="#323232" stroke-width="2" fill="none" marker-end="url(#SvgjsMarker1508)"></path></g><g id="SvgjsG1510" transform="translate(333.5124816894531,462.99999237060547)"><path id="SvgjsPath1511" d="M 0 0L 148 0L 148 39L 0 39Z" stroke="none" fill="none"></path><g id="SvgjsG1512"><text id="SvgjsText1513" font-family="微软雅黑" text-anchor="middle" font-size="13px" width="148px" fill="#323232" font-weight="400" align="middle" anchor="middle" family="微软雅黑" size="13px" weight="400" font-style="" opacity="1" y="9.55" transform="rotate(0)"><tspan id="SvgjsTspan1514" dy="16" x="74"><tspan id="SvgjsTspan1515" style="text-decoration:;">createPatchFunction</tspan></tspan></text></g></g><g id="SvgjsG1516" transform="translate(25.012481689453125,480.49999237060547)"><path id="SvgjsPath1517" d="M 10.799999999999999 49C -9 35 3.6 24.5 8.1 21C 6.300000000000001 3.5 28.8 0 37.8 7C 45 -3.5 67.5 0 67.5 10.5C 85.5 7 92.7 21 85.5 38.5C 91.8 52.5 85.5 70 64.8 63C 60.300000000000004 72.10000000000001 42.3 72.10000000000001 37.8 63C 28.8 70 10.799999999999999 66.5 10.799999999999999 49Z" stroke="rgba(50,50,50,1)" stroke-width="2" fill-opacity="1" fill="#ffffff"></path><g id="SvgjsG1518"><text id="SvgjsText1519" font-family="微软雅黑" text-anchor="middle" font-size="13px" width="70px" fill="#323232" font-weight="400" align="middle" anchor="middle" family="微软雅黑" size="13px" weight="400" font-style="" opacity="1" y="25.05" transform="rotate(0)"><tspan id="SvgjsTspan1520" dy="16" x="45"><tspan id="SvgjsTspan1521" style="text-decoration:;">createElm</tspan></tspan></text></g></g><g id="SvgjsG1522"><path id="SvgjsPath1523" d="M176.01248168945312 515.4999923706055L143.80248168945312 515.4999923706055L143.80248168945312 536.4999923706055L111.59248168945311 536.4999923706055" stroke="#323232" stroke-width="2" fill="none" marker-end="url(#SvgjsMarker1524)"></path></g><g id="SvgjsG1526" transform="translate(111.01248168945312,606)"><path id="SvgjsPath1527" d="M 10.799999999999999 49C -9 35 3.6 24.5 8.1 21C 6.300000000000001 3.5 28.8 0 37.8 7C 45 -3.5 67.5 0 67.5 10.5C 85.5 7 92.7 21 85.5 38.5C 91.8 52.5 85.5 70 64.8 63C 60.300000000000004 72.10000000000001 42.3 72.10000000000001 37.8 63C 28.8 70 10.799999999999999 66.5 10.799999999999999 49Z" stroke="rgba(50,50,50,1)" stroke-width="2" fill-opacity="1" fill="#ffffff"></path><g id="SvgjsG1528"><text id="SvgjsText1529" font-family="微软雅黑" text-anchor="middle" font-size="13px" width="70px" fill="#323232" font-weight="400" align="middle" anchor="middle" family="微软雅黑" size="13px" weight="400" font-style="" opacity="1" y="25.05" transform="rotate(0)"><tspan id="SvgjsTspan1530" dy="16" x="45"><tspan id="SvgjsTspan1531" style="text-decoration:;">DOM树</tspan></tspan></text></g></g><g id="SvgjsG1532"><path id="SvgjsPath1533" d="M76.31248168945314 550.4999923706055L76.31248168945314 581.3999961853027L126.31248168945314 581.3999961853027L126.31248168945314 612.3" stroke="#323232" stroke-width="2" fill="none" marker-end="url(#SvgjsMarker1534)"></path></g><g id="SvgjsG1536" transform="translate(212.01248168945312,559)"><path id="SvgjsPath1537" d="M 0 39C 0 -13 105 -13 105 39Q 102.89999999999999 76.44 52.5 78Q 35 78 17.5 70.2L 0 78L 12.285 66.846Q 0 54.599999999999994 0 39" stroke="rgba(50,50,50,1)" stroke-width="2" fill-opacity="1" fill="#ffffff"></path><g id="SvgjsG1538"><text id="SvgjsText1539" font-family="微软雅黑" text-anchor="middle" font-size="13px" width="85px" fill="#323232" font-weight="400" align="middle" anchor="middle" family="微软雅黑" size="13px" weight="400" font-style="" opacity="1" y="13.05" transform="rotate(0)"><tspan id="SvgjsTspan1540" dy="16" x="52.5"><tspan id="SvgjsTspan1541" style="text-decoration:;">插入给定元素</tspan></tspan><tspan id="SvgjsTspan1542" dy="16" x="52.5"><tspan id="SvgjsTspan1543" style="text-decoration:;">的父节点上，</tspan></tspan><tspan id="SvgjsTspan1544" dy="16" x="52.5"><tspan id="SvgjsTspan1545" style="text-decoration:;">一般是body</tspan></tspan></text></g></g></svg>